# xmcd
# 
# Track frame offsets:
#     150
#     62025
#     121950
#     190500
#     219075
#     248625
#     280334
# 
# Disc length: 4339
# 
# Revision: 0
# Processed by: cddbd v1.5.2PL0 Copyright (c) Steve Scherf et al.
# Submitted via: fre:ac v1.0.17
# 
DISCID=5b10f107
DTITLE=Yen Pox - Blood Music (Remaster)
DYEAR=0
DGENRE=Ambient
TTITLE0=Dervish
TTITLE1=Suction
TTITLE2=Head Shot
TTITLE3=Thin|Empty
TTITLE4=Virus
TTITLE5=Hollow Earth
TTITLE6=Summer Skin
EXTD=
EXTT0=
EXTT1=
EXTT2=
EXTT3=
EXTT4=
EXTT5=
EXTT6=
PLAYORDER=
